<svg width="47" height="55" viewBox="0 0 47 55" fill="none" xmlns="http://www.w3.org/2000/svg">
<g clip-path="url(#clip0_151_75)">
<path d="M24.7275 0.662345L44.7943 12.2933C46.1568 13.0831 46.9956 14.5387 46.9956 16.1136V38.1453C46.9956 39.7227 46.154 41.1804 44.788 41.9692L25.7041 52.9885C24.3375 53.7776 22.6537 53.7774 21.2873 52.988L2.20678 41.9649C0.841165 41.176 0 39.7186 0 38.1415V16.1185C0 14.541 0.841535 13.0833 2.20763 12.2945L22.2921 0.697476C23.0428 0.263988 23.9646 0.250691 24.7275 0.662345V0.662345ZM33.6162 9.59959L25.7079 5.03274C24.3417 4.24375 22.6583 4.24368 21.2919 5.03253L5.47097 14.1668C4.10477 14.9556 3.26315 16.4133 3.26315 17.9908V36.2685C3.26315 37.846 4.10477 39.3037 5.47097 40.0925L21.2922 49.2269C22.6584 50.0157 24.3416 50.0157 25.7078 49.2269L41.529 40.0925C42.8952 39.3037 43.7368 37.846 43.7368 36.2685V17.9911C43.7368 16.4134 42.8951 14.9556 41.5287 14.1669L33.6162 9.59959Z" fill="#F97015"/>
</g>
<defs>
<clipPath id="clip0_151_75">
<rect width="47" height="54.2593" fill="white"/>
</clipPath>
</defs>
</svg>
